<svg xmlns="http://www.w3.org/2000/svg" viewBox="0 0 760 240" role="img" aria-label="XVI Group logo dark">
<defs>
<linearGradient id="gold" x1="0%" y1="0%" x2="100%" y2="100%">
<stop offset="0%" stop-color="#F0DFC1"/>
<stop offset="100%" stop-color="#C9A96E"/>
</linearGradient>
</defs>
<path d="M64 22H176L218 64V176L176 218H64L22 176V64L64 22Z" fill="none" stroke="rgba(6,10,16,0.14)" stroke-width="2"/>
<path d="M76 42H164L198 76V164L164 198H76L42 164V76L76 42Z" fill="none" stroke="rgba(201,169,110,0.34)" stroke-width="1.4"/>
<rect x="113" y="42" width="14" height="156" rx="7" fill="#060A10"/>
<path d="M58 58H82L122 118H98L58 58Z" fill="#060A10"/>
<path d="M98 122H122L82 182H58L98 122Z" fill="#060A10"/>
<path d="M158 58H182L142 118H118L158 58Z" fill="#060A10"/>
<path d="M118 122H142L182 182H158L118 122Z" fill="#060A10"/>
<path d="M52 120H188" stroke="url(#gold)" stroke-width="1.8" stroke-linecap="round"/>
<circle cx="120" cy="34" r="3.5" fill="#C9A96E"/>
<circle cx="120" cy="206" r="3.5" fill="#C9A96E"/>
<g transform="translate(272 68)" fill="#060A10" font-family="Inter, Arial, sans-serif">
<text x="0" y="32" font-size="34" font-weight="700" letter-spacing="10">XVI</text>
<rect x="118" y="16" width="68" height="1.5" rx=".75" fill="#C9A96E"/>
<text x="206" y="32" font-size="34" font-weight="700" letter-spacing="10">GROUP</text>
<text x="0" y="76" font-size="12" font-weight="600" letter-spacing="4" fill="rgba(6,10,16,0.58)">INTELLIGENCE · STRATEGY · TRANSFORMATION</text>
</g>
</svg>
